<svg width="441" height="441" viewBox="0 0 441 441" fill="none" xmlns="http://www.w3.org/2000/svg">
<path d="M0 40C0 17.9086 17.9086 0 40 0H401C423.091 0 441 17.9086 441 40V401C441 423.091 423.091 441 401 441H40C17.9086 441 0 423.091 0 401V40Z" fill="#00FFFF"/>
<g filter="url(#filter0_i_3_26)">
<path fill-rule="evenodd" clip-rule="evenodd" d="M0 30C0 13.4315 13.4315 0 30 0H411C427.569 0 441 13.4314 441 30V153.012H180.579C175.057 153.012 170.579 157.489 170.579 163.012V191.336C170.579 196.859 175.057 201.336 180.579 201.336H233.102C240.427 201.336 245.227 208.966 241.129 215.037C234.968 224.164 227.679 231.295 219.263 236.43C207.138 243.903 192.196 247.639 174.437 247.639C147.126 247.639 124.162 238.574 105.546 220.445C86.9304 202.316 77.6224 180.205 77.6224 154.114C77.6224 128.88 86.5629 107.443 104.444 89.8042C122.448 72.165 144.738 63.3453 171.314 63.3453C198.63 63.3453 222.899 73.0747 244.122 92.5335C248.261 96.3284 254.698 96.4732 258.688 92.5225L280.735 70.6955C284.565 66.9035 284.719 60.7354 280.889 56.9439C266.5 42.7029 251.837 32.4035 236.899 26.0457C216.446 17.3486 194.462 13 170.947 13C125.999 13 89.5023 28.7406 61.456 60.2217C37.8187 86.6806 26 117.794 26 153.563C26 179.654 32.3686 203.969 45.1058 226.508C57.9655 249.047 75.3566 266.442 97.2793 278.691C119.324 290.818 144.37 296.882 172.417 296.882C197.591 296.882 219.658 291.74 238.617 281.456C240.149 280.625 241.857 280.161 243.6 280.161H296.892C302.415 280.161 306.892 284.638 306.892 290.161V441H30C13.4315 441 0 427.569 0 411V30ZM102.591 336.595C100.171 342.121 105.007 347.55 111.039 347.55H112.94C117.317 347.55 120.945 344.354 124.176 341.402C124.572 341.04 124.992 340.697 125.438 340.371C127.944 338.487 130.731 337.545 133.799 337.545C137.277 337.545 140.09 338.563 142.238 340.6C144.386 342.586 145.46 345.106 145.46 348.161C145.46 350.503 144.744 352.718 143.312 354.806C141.931 356.893 139.962 358.548 137.405 359.77C136.615 360.14 135.692 360.471 134.638 360.764C129.819 362.105 125.898 365.996 125.898 370.998V370.998C125.898 376.246 130.177 380.324 135.299 381.471C139.26 382.358 142.545 383.831 145.153 385.891C149.602 389.404 151.827 393.706 151.827 398.798C151.827 403.431 150.165 407.352 146.841 410.56C143.568 413.768 139.425 415.372 134.413 415.372C129.606 415.372 125.617 413.971 122.446 411.171C121.018 409.866 119.82 408.251 118.853 406.327C116.644 401.933 112.764 398.187 107.846 398.187H105.738C99.9857 398.187 95.2691 403.095 96.8085 408.638C98.6327 415.206 101.86 420.709 106.489 425.148C113.394 431.716 122.318 435 133.262 435C144.821 435 154.333 431.512 161.8 424.537C169.267 417.51 173 408.956 173 398.874C173 392.001 171.057 386.043 167.17 381.003C166.386 379.962 165.539 378.985 164.629 378.072C160.686 374.116 159.96 364.973 163.027 360.305V360.305C165.789 356.181 167.17 351.624 167.17 346.634C167.17 338.589 164.025 331.639 157.734 325.783C151.495 319.928 143.747 317 134.49 317C124.108 317 115.49 320.513 108.637 327.54C106.116 330.129 104.1 333.147 102.591 336.595ZM27.8782 355.009C26.3297 351.41 22.7877 349.078 18.8697 349.078V349.078C11.8299 349.078 7.08306 356.275 9.855 362.746L36.9982 426.112C38.5736 429.789 42.1894 432.174 46.1903 432.174H46.5725C50.5763 432.174 54.1941 429.786 55.7678 426.104L82.8725 362.692C85.6286 356.244 80.8981 349.078 73.8859 349.078V349.078C69.9767 349.078 66.4435 351.407 64.9033 355L55.597 376.709C52.1357 384.783 40.6919 384.791 37.22 376.721L27.8782 355.009Z" fill="white"/>
<path fill-rule="evenodd" clip-rule="evenodd" d="M0 30C0 13.4315 13.4315 0 30 0H411C427.569 0 441 13.4314 441 30V153.012H180.579C175.057 153.012 170.579 157.489 170.579 163.012V191.336C170.579 196.859 175.057 201.336 180.579 201.336H233.102C240.427 201.336 245.227 208.966 241.129 215.037C234.968 224.164 227.679 231.295 219.263 236.43C207.138 243.903 192.196 247.639 174.437 247.639C147.126 247.639 124.162 238.574 105.546 220.445C86.9304 202.316 77.6224 180.205 77.6224 154.114C77.6224 128.88 86.5629 107.443 104.444 89.8042C122.448 72.165 144.738 63.3453 171.314 63.3453C198.63 63.3453 222.899 73.0747 244.122 92.5335C248.261 96.3284 254.698 96.4732 258.688 92.5225L280.735 70.6955C284.565 66.9035 284.719 60.7354 280.889 56.9439C266.5 42.7029 251.837 32.4035 236.899 26.0457C216.446 17.3486 194.462 13 170.947 13C125.999 13 89.5023 28.7406 61.456 60.2217C37.8187 86.6806 26 117.794 26 153.563C26 179.654 32.3686 203.969 45.1058 226.508C57.9655 249.047 75.3566 266.442 97.2793 278.691C119.324 290.818 144.37 296.882 172.417 296.882C197.591 296.882 219.658 291.74 238.617 281.456C240.149 280.625 241.857 280.161 243.6 280.161H296.892C302.415 280.161 306.892 284.638 306.892 290.161V441H30C13.4315 441 0 427.569 0 411V30ZM102.591 336.595C100.171 342.121 105.007 347.55 111.039 347.55H112.94C117.317 347.55 120.945 344.354 124.176 341.402C124.572 341.04 124.992 340.697 125.438 340.371C127.944 338.487 130.731 337.545 133.799 337.545C137.277 337.545 140.09 338.563 142.238 340.6C144.386 342.586 145.46 345.106 145.46 348.161C145.46 350.503 144.744 352.718 143.312 354.806C141.931 356.893 139.962 358.548 137.405 359.77C136.615 360.14 135.692 360.471 134.638 360.764C129.819 362.105 125.898 365.996 125.898 370.998V370.998C125.898 376.246 130.177 380.324 135.299 381.471C139.26 382.358 142.545 383.831 145.153 385.891C149.602 389.404 151.827 393.706 151.827 398.798C151.827 403.431 150.165 407.352 146.841 410.56C143.568 413.768 139.425 415.372 134.413 415.372C129.606 415.372 125.617 413.971 122.446 411.171C121.018 409.866 119.82 408.251 118.853 406.327C116.644 401.933 112.764 398.187 107.846 398.187H105.738C99.9857 398.187 95.2691 403.095 96.8085 408.638C98.6327 415.206 101.86 420.709 106.489 425.148C113.394 431.716 122.318 435 133.262 435C144.821 435 154.333 431.512 161.8 424.537C169.267 417.51 173 408.956 173 398.874C173 392.001 171.057 386.043 167.17 381.003C166.386 379.962 165.539 378.985 164.629 378.072C160.686 374.116 159.96 364.973 163.027 360.305V360.305C165.789 356.181 167.17 351.624 167.17 346.634C167.17 338.589 164.025 331.639 157.734 325.783C151.495 319.928 143.747 317 134.49 317C124.108 317 115.49 320.513 108.637 327.54C106.116 330.129 104.1 333.147 102.591 336.595ZM27.8782 355.009C26.3297 351.41 22.7877 349.078 18.8697 349.078V349.078C11.8299 349.078 7.08306 356.275 9.855 362.746L36.9982 426.112C38.5736 429.789 42.1894 432.174 46.1903 432.174H46.5725C50.5763 432.174 54.1941 429.786 55.7678 426.104L82.8725 362.692C85.6286 356.244 80.8981 349.078 73.8859 349.078V349.078C69.9767 349.078 66.4435 351.407 64.9033 355L55.597 376.709C52.1357 384.783 40.6919 384.791 37.22 376.721L27.8782 355.009Z" fill="url(#paint0_linear_3_26)"/>
<path d="M357.78 213.173C357.78 207.65 362.257 203.173 367.78 203.173H441V252.232H367.78C362.257 252.232 357.78 247.755 357.78 242.232V213.173Z" fill="white"/>
<path d="M357.78 213.173C357.78 207.65 362.257 203.173 367.78 203.173H441V252.232H367.78C362.257 252.232 357.78 247.755 357.78 242.232V213.173Z" fill="url(#paint1_linear_3_26)"/>
<path d="M357.78 311.659C357.78 306.136 362.257 301.659 367.78 301.659H441V411C441 427.569 427.569 441 411 441H357.78V311.659Z" fill="white"/>
<path d="M357.78 311.659C357.78 306.136 362.257 301.659 367.78 301.659H441V411C441 427.569 427.569 441 411 441H357.78V311.659Z" fill="url(#paint2_linear_3_26)"/>
</g>
<defs>
<filter id="filter0_i_3_26" x="0" y="0" width="441" height="441" filterUnits="userSpaceOnUse" color-interpolation-filters="sRGB">
<feFlood flood-opacity="0" result="BackgroundImageFix"/>
<feBlend mode="normal" in="SourceGraphic" in2="BackgroundImageFix" result="shape"/>
<feColorMatrix in="SourceAlpha" type="matrix" values="0 0 0 0 0 0 0 0 0 0 0 0 0 0 0 0 0 0 127 0" result="hardAlpha"/>
<feOffset/>
<feGaussianBlur stdDeviation="10"/>
<feComposite in2="hardAlpha" operator="arithmetic" k2="-1" k3="1"/>
<feColorMatrix type="matrix" values="0 0 0 0 0.0749653 0 0 0 0 0.133662 0 0 0 0 0.141667 0 0 0 0.3 0"/>
<feBlend mode="normal" in2="shape" result="effect1_innerShadow_3_26"/>
</filter>
<linearGradient id="paint0_linear_3_26" x1="0" y1="0" x2="441" y2="441" gradientUnits="userSpaceOnUse">
<stop stop-color="#2295A5"/>
<stop offset="1" stop-color="#001739"/>
</linearGradient>
<linearGradient id="paint1_linear_3_26" x1="0" y1="0" x2="441" y2="441" gradientUnits="userSpaceOnUse">
<stop stop-color="#2295A5"/>
<stop offset="1" stop-color="#001739"/>
</linearGradient>
<linearGradient id="paint2_linear_3_26" x1="0" y1="0" x2="441" y2="441" gradientUnits="userSpaceOnUse">
<stop stop-color="#2295A5"/>
<stop offset="1" stop-color="#001739"/>
</linearGradient>
</defs>
</svg>
